<?xml version="1.0" encoding="iso-8859-1"?>
<!-- Generator: Adobe Illustrator 19.1.0, SVG Export Plug-In . SVG Version: 6.00 Build 0)  -->
<svg version="1.1" id="Capa_1" xmlns="http://www.w3.org/2000/svg" xmlns:xlink="http://www.w3.org/1999/xlink" x="0px" y="0px"
	 viewBox="0 0 415.325 415.325" style="enable-background:new 0 0 415.325 415.325;" xml:space="preserve">
<g>
	<path style="fill:#FFCC66;" d="M322.529,385.005c4.227,8.705,16.168,15.24,34.68,19.077c-3.854-18.597-10.432-30.546-19.193-34.726
		c-6.553-3.128-12.979-1.125-15.594-0.036C321.308,371.951,319.299,378.352,322.529,385.005z"/>
	<path style="fill:#669933;" d="M144.315,200.407c-1.068,8.619,5.387,21.998,12.854,29.463c4.067,4.068,9.528,5.628,13.976,4.461
		l-12.216-12.241c-1.951-1.955-1.947-5.12,0.007-7.07c1.956-1.951,5.121-1.949,7.071,0.007l12.222,12.247
		c1.185-4.454-0.372-9.933-4.45-14.011C166.311,205.798,152.933,199.339,144.315,200.407z"/>
	<path style="fill:#669933;" d="M212.647,208.683c6.009-2.523,10.342-9.442,10.342-17.582c0-13.453-6.199-31.28-15.342-37.69
		c-9.143,6.411-15.344,24.238-15.344,37.69c0,8.139,4.334,15.057,10.344,17.582V185.71c0-2.761,2.238-5,5-5c2.762,0,5,2.239,5,5
		V208.683z"/>
	<path style="fill:#FFCC66;" d="M77.17,369.407c-8.707,4.229-15.241,16.169-19.079,34.682c18.595-3.853,30.544-10.431,34.726-19.191
		c3.127-6.552,1.125-12.978,0.035-15.595C90.199,368.18,83.811,366.183,77.17,369.407z"/>
	<path style="fill:#CC9933;" d="M207.645,47.578c30.549,0,59.553,2.08,81.67,5.857c12.604,2.152,21.203,4.526,27.098,6.913
		c-0.555-2.266-1.836-7.701-1.841-7.812c-0.001-0.005-0.002-0.01-0.003-0.016c-0.885-1.642-8.072-6.478-31.707-10.553
		c-20.473-3.531-47.186-5.476-75.215-5.476c-28.031,0-54.742,1.944-75.217,5.475c-23.633,4.076-30.822,8.912-31.707,10.554
		c-0.001,0.005-1.289,5.562-1.844,7.827c5.899-2.387,14.506-4.763,27.131-6.917C148.125,49.656,177.115,47.578,207.645,47.578z"/>
	<path style="fill:#FFCC66;" d="M92.764,30.24C88.537,21.534,76.596,15,58.084,11.162c3.854,18.596,10.432,30.546,19.193,34.727
		c6.553,3.128,12.979,1.124,15.594,0.034C93.985,43.293,95.994,36.893,92.764,30.24z"/>
	<path style="fill:#CC9933;" d="M207.649,367.648c-30.547,0-59.553-2.08-81.67-5.858c-12.603-2.152-21.201-4.526-27.096-6.913
		c0.555,2.265,1.839,7.821,1.84,7.827c0.885,1.643,8.074,6.479,31.709,10.555c20.473,3.529,47.184,5.475,75.213,5.475
		s54.742-1.945,75.215-5.475c23.635-4.076,30.824-8.912,31.709-10.555c0.001-0.006,1.285-5.56,1.84-7.825
		c-5.898,2.387-14.504,4.762-27.125,6.915C267.168,365.569,238.176,367.648,207.649,367.648z"/>
	<path style="fill:#669933;" d="M249.548,215.027c1.95-1.955,5.115-1.958,7.071-0.007c1.954,1.949,1.958,5.115,0.007,7.07
		l-12.345,12.371c4.447,1.167,9.905-0.393,13.973-4.461c7.467-7.464,13.923-20.843,12.853-29.463
		c-8.621-1.07-21.996,5.39-29.462,12.856c-4.079,4.079-5.636,9.559-4.45,14.012L249.548,215.027z"/>
	<path style="fill:#FFCC66;" d="M286.096,63.035c-21.375-3.519-49.236-5.457-78.451-5.457c-29.213,0-57.076,1.938-78.453,5.458
		c-24.995,4.115-32.553,9.055-33.424,10.681c-19.459,88.022-19.463,179.796,0.001,267.818c0.001,0.006,0.005,0.012,0.007,0.018
		c0.715,1.482,8.176,6.482,33.422,10.639c21.377,3.518,49.236,5.457,78.451,5.457c29.213,0,57.074-1.94,78.451-5.459
		c25.059-4.126,32.593-9.079,33.432-10.693c19.46-88.026,19.449-179.807-0.02-267.832C318.772,72.169,311.291,67.182,286.096,63.035
		z M207.647,303.12c-52.664,0-95.51-42.845-95.51-95.508c0-52.663,42.846-95.508,95.51-95.508c52.664,0,95.51,42.845,95.51,95.508
		C303.156,260.276,260.311,303.12,207.647,303.12z"/>
	<path style="fill:#FFCC66;" d="M338.123,45.838c8.707-4.227,15.242-16.169,19.08-34.682c-18.596,3.853-30.545,10.431-34.727,19.193
		c-3.126,6.55-1.125,12.975-0.035,15.593C325.092,47.064,331.481,49.062,338.123,45.838z"/>
	<path style="fill:#CCFF66;" d="M207.647,122.104c-47.15,0-85.51,38.359-85.51,85.508c0,47.15,38.359,85.508,85.51,85.508
		s85.51-38.358,85.51-85.508C293.156,160.463,254.797,122.104,207.647,122.104z M276.923,191.678l-0.007,0.021
		c1.371,0.486,2.527,1.544,3.051,3.023c5,14.115-5.552,33.263-14.642,42.351c-5.128,5.128-11.741,7.744-18.076,7.744
		c-3.733,0-7.358-0.931-10.539-2.768l-24.064,24.115v12.254c0,2.761-2.238,5-5,5c-2.762,0-5-2.239-5-5v-12.52l-23.933-23.98
		c-3.181,1.838-6.807,2.77-10.54,2.77c-6.336,0-12.947-2.616-18.076-7.745c-9.09-9.089-19.643-28.236-14.641-42.35
		c0.523-1.479,1.68-2.536,3.051-3.022l-0.008-0.021c14.109-4.996,33.26,5.555,42.348,14.643c8.166,8.167,9.939,20.085,4.948,28.665
		l16.851,16.885v-32.586c-11.588-2.629-20.344-14.207-20.344-28.054c0-17.763,8.867-41.162,23.193-47.991l0.009,0.02
		c1.313-0.625,2.877-0.695,4.294-0.02c14.324,6.83,23.189,30.229,23.189,47.991c0,13.848-8.755,25.426-20.342,28.055v32.85
		l16.981-17.018c-4.993-8.581-3.222-20.5,4.947-28.667C243.665,197.233,262.815,186.68,276.923,191.678z"/>
	<path style="fill:#663333;" d="M229.628,234.988l-16.981,17.018v-32.85c11.587-2.629,20.342-14.208,20.342-28.055
		c0-17.762-8.865-41.161-23.189-47.991c-1.417-0.675-2.98-0.605-4.294,0.02l-0.009-0.02c-14.326,6.829-23.193,30.228-23.193,47.991
		c0,13.847,8.756,25.425,20.344,28.054v32.586l-16.851-16.885c4.991-8.58,3.218-20.498-4.948-28.665
		c-9.088-9.088-28.238-19.64-42.348-14.643l0.008,0.021c-1.371,0.487-2.527,1.544-3.051,3.022
		c-5.002,14.114,5.551,33.261,14.641,42.35c5.129,5.129,11.74,7.745,18.076,7.745c3.733,0,7.359-0.932,10.54-2.77l23.933,23.98
		v12.52c0,2.761,2.238,5,5,5c2.762,0,5-2.239,5-5v-12.254l24.064-24.115c3.181,1.838,6.806,2.768,10.539,2.768
		c6.335,0,12.948-2.616,18.076-7.744c9.09-9.088,19.642-28.235,14.642-42.351c-0.523-1.479-1.68-2.537-3.051-3.023l0.007-0.021
		c-14.108-4.997-33.258,5.555-42.348,14.644C226.406,214.488,224.635,226.407,229.628,234.988z M178.228,227.274l-12.222-12.247
		c-1.95-1.956-5.115-1.958-7.071-0.007c-1.954,1.95-1.958,5.115-0.007,7.07l12.216,12.241c-4.447,1.167-9.908-0.393-13.976-4.461
		c-7.467-7.465-13.922-20.844-12.854-29.463c8.618-1.068,21.996,5.39,29.463,12.855
		C177.856,217.341,179.412,222.819,178.228,227.274z M207.647,180.71c-2.762,0-5,2.239-5,5v22.973
		c-6.01-2.524-10.344-9.442-10.344-17.582c0-13.453,6.201-31.28,15.344-37.69c9.143,6.411,15.342,24.238,15.342,37.69
		c0,8.14-4.333,15.058-10.342,17.582V185.71C212.647,182.948,210.408,180.71,207.647,180.71z M241.646,213.393
		c7.466-7.465,20.841-13.925,29.462-12.856c1.069,8.62-5.387,21.999-12.853,29.463c-4.067,4.068-9.525,5.628-13.973,4.461
		l12.345-12.371c1.951-1.955,1.947-5.121-0.007-7.07c-1.956-1.951-5.121-1.948-7.071,0.007l-12.352,12.378
		C236.01,222.951,237.567,217.472,241.646,213.393z"/>
	<path style="fill:#663333;" d="M207.647,112.104c-52.664,0-95.51,42.845-95.51,95.508c0,52.664,42.846,95.508,95.51,95.508
		c52.664,0,95.51-42.845,95.51-95.508C303.156,154.949,260.311,112.104,207.647,112.104z M207.647,293.12
		c-47.15,0-85.51-38.358-85.51-85.508c0-47.149,38.359-85.508,85.51-85.508s85.51,38.359,85.51,85.508
		C293.156,254.762,254.797,293.12,207.647,293.12z"/>
	<path style="fill:#663333;" d="M342.322,54.914c13.109-6.256,21.977-22.791,26.039-49.193c0.744-4.836-4.037-5.899-5.715-5.699
		l-0.004-0.02c-26.385,4.169-42.936,12.93-49.191,26.039c-2.156,4.519-2.762,8.913-2.63,12.78
		c-5.389-2.141-12.839-4.234-23.122-6.147c-21.43-3.987-49.859-6.183-80.053-6.183c-30.193,0-58.623,2.196-80.055,6.183
		c-10.275,1.912-17.722,4.003-23.109,6.143c0.13-3.865-0.486-8.261-2.641-12.775C95.586,12.932,79.035,4.172,52.651,0.002
		l-0.004,0.021c-3.531-0.074-6.146,2.97-5.715,5.698c4.168,26.386,12.93,42.937,26.039,49.193c4.141,1.977,8.188,2.664,11.811,2.664
		c1.624,0,3.153-0.143,4.576-0.364c-24.238,98.55-24.236,202.271,0.006,300.82c-4.604-0.718-10.408-0.597-16.393,2.297
		c-15.781,7.632-26.102,43.53-26.039,50.754c0.021,2.493,2.514,4.219,4.932,4.219c5.062,0,43.512-10.123,49.978-26.1
		c1.879-4.643,2.773-8.927,2.641-12.797c5.389,2.14,12.834,4.23,23.109,6.143c21.432,3.988,49.861,6.184,80.053,6.184
		c30.193,0,58.623-2.195,80.055-6.184c10.278-1.912,17.727-4.004,23.114-6.145c-0.134,3.871,0.48,8.275,2.638,12.799
		c6.256,13.109,22.852,21.594,49.191,26.039c1.082,0.183,1.561,0,1.561,0c2.728-0.432,4.59-2.992,4.158-5.719
		c-4.168-26.387-12.93-42.938-26.039-49.193c-6.002-2.865-11.791-3.016-16.395-2.297c24.244-98.549,24.246-202.271,0.006-300.822
		c1.424,0.222,2.953,0.366,4.578,0.366C334.135,57.578,338.182,56.89,342.322,54.914z M100.723,52.52
		c0.885-1.642,8.074-6.478,31.707-10.554c20.475-3.531,47.186-5.475,75.217-5.475c28.029,0,54.742,1.944,75.215,5.476
		c23.635,4.076,30.822,8.912,31.707,10.553c0.001,0.005,0.002,0.01,0.003,0.016c0.005,0.111,1.286,5.547,1.841,7.812
		c-5.895-2.387-14.494-4.761-27.098-6.913c-22.117-3.777-51.121-5.857-81.67-5.857c-30.529,0-59.52,2.078-81.635,5.852
		c-12.625,2.154-21.231,4.53-27.131,6.917C99.434,58.082,100.722,52.525,100.723,52.52z M77.277,45.889
		c-8.762-4.181-15.339-16.131-19.193-34.727C76.596,15,88.537,21.534,92.764,30.24c3.23,6.652,1.222,13.052,0.107,15.683
		C90.256,47.013,83.83,49.017,77.277,45.889z M92.817,384.898c-4.182,8.761-16.131,15.339-34.726,19.191
		c3.838-18.513,10.372-30.453,19.079-34.682c6.641-3.225,13.029-1.228,15.682-0.104C93.942,371.92,95.944,378.346,92.817,384.898z
		 M314.569,362.704c-0.885,1.643-8.074,6.479-31.709,10.555c-20.473,3.529-47.186,5.475-75.215,5.475s-54.74-1.945-75.213-5.475
		c-23.635-4.076-30.824-8.912-31.709-10.555c-0.001-0.006-1.285-5.562-1.84-7.827c5.895,2.387,14.493,4.761,27.096,6.913
		c22.117,3.777,51.123,5.858,81.67,5.858c30.527,0,59.52-2.078,81.635-5.854c12.621-2.153,21.227-4.528,27.125-6.915
		C315.854,357.144,314.569,362.698,314.569,362.704z M338.016,369.357c8.762,4.18,15.339,16.129,19.193,34.726
		c-18.512-3.837-30.453-10.372-34.68-19.077c-3.23-6.653-1.222-13.054-0.107-15.685
		C325.037,368.232,331.463,366.229,338.016,369.357z M319.531,341.495c-0.839,1.614-8.373,6.567-33.432,10.693
		c-21.377,3.52-49.238,5.459-78.451,5.459c-29.215,0-57.074-1.94-78.451-5.457c-25.246-4.156-32.707-9.156-33.422-10.639
		c-0.002-0.006-0.006-0.012-0.007-0.018c-19.464-88.021-19.46-179.796-0.001-267.818c0.871-1.626,8.429-6.566,33.424-10.681
		c21.377-3.52,49.24-5.458,78.453-5.458c29.215,0,57.076,1.938,78.451,5.457c25.195,4.147,32.676,9.134,33.416,10.628
		C338.981,161.689,338.991,253.469,319.531,341.495z M322.442,45.941c-1.09-2.618-3.091-9.042,0.035-15.593
		c4.182-8.762,16.131-15.339,34.727-19.193c-3.838,18.513-10.373,30.455-19.08,34.682C331.481,49.062,325.092,47.064,322.442,45.941
		z"/>
</g>
<g>
</g>
<g>
</g>
<g>
</g>
<g>
</g>
<g>
</g>
<g>
</g>
<g>
</g>
<g>
</g>
<g>
</g>
<g>
</g>
<g>
</g>
<g>
</g>
<g>
</g>
<g>
</g>
<g>
</g>
</svg>
