<?xml version="1.0" encoding="utf-8"?>
<svg viewBox="87.037 73.598 304.166 312.486" xmlns="http://www.w3.org/2000/svg">
  <path id="XMLID_2_" d="M 116.598 -5.612 C 63.798 -5.612 22.3 46.7 22.4 99.5 C 22.4 130 36.7 157.1 58.9 174.6 L 58.9 255.6 L 82.5 255.6 L 82.5 242.6 L 105.1 242.6 L 105.1 255.6 L 160.6 255.6 L 160.6 226.4 L 175.6 226.4 C 196.4 226.4 213.2 209.5 213.2 188.7 L 213.2 162 L 226 162 C 230.3 162 233.7 158.5 233.7 154.3 C 233.7 153.2 233.5 152.2 233.1 151.3 L 213.2 101.1 C 213.2 101.1 211.1 80.3 209.3 72.3 C 201 36.5 159.899 -4.41 116.599 -4.41 M 105.1 202.4 L 82.5 202.4 L 82.5 190.2 L 105.1 190.2 L 105.1 202.4 Z M 105.1 185 L 82.5 185 L 82.5 172.8 L 105.1 172.8 L 105.1 185 Z M 105.1 220 L 82.5 220 L 82.5 207.7 L 105.1 207.7 L 105.1 220 Z M 105.1 237.4 L 82.5 237.4 L 82.5 225.1 L 105.1 225.1 L 105.1 237.4 Z M 105.1 167.6 L 82.4 167.6 L 82.4 158.1 C 82.4 157.2 82.3 156.3 82.3 155.4 L 105.1 155.4 L 105.1 167.6 Z M 42.4 84.9 C 42.4 79.2 44.3 74.1 47.4 70.2 C 46.9 68.2 46.6 66 46.6 63.8 C 46.6 52.7 53.9 43.4 64 40.3 C 67.9 31.7 76.5 25.7 86.4 25.7 C 88.4 25.7 90.3 26 92.1 26.4 C 96.5 22.3 102.4 19.8 108.8 19.8 C 113.8 19.8 118.5 21.3 122.4 23.9 C 125.9 22 129.8 21 134 21 C 142.5 21 150 25.2 154.4 31.7 C 155 31.7 155.6 31.6 156.2 31.6 C 168 31.6 177.8 39.9 180.2 50.9 C 189.1 54.7 195.4 63.6 195.4 74 C 195.4 87.9 184.2 99.1 170.3 99.1 C 165.2 99.1 160.5 97.6 156.6 95 C 152.7 97.6 147.9 99.2 142.8 99.2 C 137.7 99.2 133 97.6 129 94.9 C 126.3 98 122.4 100.4 118.8 101.8 C 111.2 105 105.1 114.2 105.1 123.9 L 105.1 150.3 L 96.1 150.3 L 96.1 122.6 C 96.2 112.8 92.6 104.9 85.1 100.5 C 83 99.2 81.2 97.9 79.7 96.4 C 79.6 96.3 79.4 96.1 79.3 96 C 77.4 93.9 76.1 91.6 75.5 88.7 C 77.3 88.1 79.2 87.8 81.2 87.8 C 83.6 87.8 86.1 88.2 88.5 89.2 C 89.9 89.8 91.4 89.1 91.9 87.8 C 92.5 86.5 91.8 84.9 90.5 84.4 C 87.5 83.2 84.4 82.6 81.3 82.6 C 79.1 82.6 77 82.9 75 83.4 C 75 72.6 83.7 63.9 94.5 63.9 C 98.5 63.9 102.2 62.9 105.5 61.3 C 108.6 64.9 110.2 69.4 110.2 74 L 110.2 74.7 C 110.2 74.8 110.2 74.8 110.2 74.9 C 110.1 79.6 108.3 84.2 104.8 87.9 C 103.8 89 103.8 90.6 104.9 91.6 C 105.4 92.1 106.1 92.3 106.7 92.3 C 107.4 92.3 108.1 92 108.6 91.5 C 112.5 87.4 114.7 82.2 115.3 77 C 116.6 76.7 117.9 76.6 119.3 76.6 C 122.4 76.6 125.5 77.3 128.5 78.9 C 128.9 79.1 129.3 79.2 129.7 79.2 C 130.6 79.2 131.5 78.7 132 77.8 C 132.6 76.5 132.2 75 130.9 74.3 C 127.2 72.3 123.2 71.4 119.3 71.4 C 118 71.4 116.6 71.5 115.3 71.7 C 114.8 67.1 113 62.6 109.9 58.8 C 112.9 56.3 115.4 53.2 117 49.6 C 121.3 52.7 126.4 54.3 131.5 54.3 C 133.3 54.3 135 54.1 136.8 53.7 C 138.5 65.7 148.8 75 161.3 75 L 161.6 75 C 166.9 75 171.7 77.1 175.2 80.5 C 175.7 81 176.3 81.2 176.9 81.2 C 177.6 81.2 178.3 80.9 178.8 80.4 C 179.9 79.3 179.9 77.7 178.8 76.7 C 174.4 72.3 168.3 69.7 161.6 69.7 L 161.3 69.7 C 159.6 69.7 157.9 69.4 156.3 69 C 158.7 65.8 162 63.2 166.2 61.9 C 167.6 61.5 168.3 60.1 167.9 58.7 C 167.4 57.3 166 56.6 164.6 57 C 159 58.7 154.4 62.4 151.4 67 C 146.2 63.9 142.4 58.4 141.9 51.9 C 144.5 50.7 146.9 49 149 46.9 C 150 45.8 150 44.2 149 43.2 C 147.9 42.2 146.3 42.2 145.3 43.2 C 143.2 45.2 140.8 46.8 138.2 47.7 C 138.1 47.7 138.1 47.7 138.1 47.7 C 136 48.5 133.8 48.9 131.5 48.9 C 126.9 48.9 122.4 47.3 118.7 44.1 C 119 42.5 119.2 40.9 119.2 39.2 C 119.2 37.8 118.1 36.6 116.6 36.6 C 115.2 36.6 114 37.8 114 39.2 C 114 49.2 106.6 57.4 96.9 58.6 C 96.2 52.9 93.6 47.7 89.8 43.9 C 88.8 42.9 87.1 42.9 86.1 43.9 C 85.1 44.9 85.1 46.5 86.1 47.5 C 89.2 50.5 91.2 54.5 91.7 58.9 C 83.5 59.9 76.5 64.8 72.7 71.8 C 68 71.2 63.9 68.9 60.8 65.6 C 59.9 64.5 58.3 64.4 57.2 65.4 C 56.1 66.4 56 68 57 69.1 C 60.5 72.9 65.3 75.7 70.7 76.7 C 70 78.9 69.7 81.2 69.7 83.5 C 69.7 83.6 69.7 83.6 69.7 83.6 C 69.6 88.8 70.9 93.2 73.3 96.8 C 68.7 98.8 64.7 102.4 62 107.1 C 61.3 108.3 61.7 109.9 63 110.6 C 63.4 110.8 63.9 110.9 64.3 110.9 C 65.2 110.9 66.1 110.4 66.6 109.6 C 69 105.4 72.8 102.4 77 100.9 C 78.6 102.4 80.5 103.8 82.6 105 C 88.3 108.4 91 114 91.1 122.6 L 91.1 150.3 L 81.7 150.3 C 79.9 138.3 73.9 128.3 63.9 122.5 L 63.9 122.4 C 55.7 118.8 49.8 111 49.1 101.7 C 45 97.3 42.4 91.4 42.4 84.9" transform="matrix(1, 0, 0, 1, 116.006013, 107.962223)" style="fill: rgb(216, 212, 92); paint-order: fill;"/>
</svg>